<svg width="60" height="23" viewBox="0 0 60 23" fill="none" xmlns="http://www.w3.org/2000/svg">
<path d="M0 2.5C0 1.11929 1.11929 0 2.5 0H57.5C58.8807 0 60 1.11929 60 2.5C60 3.88071 58.8807 5 57.5 5H2.5C1.11929 5 0 3.88071 0 2.5Z" fill="#312A1B"/>
<path d="M0 20.5C0 19.1193 1.11929 18 2.5 18H57.5C58.8807 18 60 19.1193 60 20.5C60 21.8807 58.8807 23 57.5 23H2.5C1.11929 23 0 21.8807 0 20.5Z" fill="#312A1B"/>
<path d="M0 11.5C0 10.1193 1.11929 9 2.5 9H57.5C58.8807 9 60 10.1193 60 11.5C60 12.8807 58.8807 14 57.5 14H2.5C1.11929 14 0 12.8807 0 11.5Z" fill="#312A1B"/>
</svg>
